<?xml version="1.0" encoding="UTF-8"?>
<svg xmlns="http://www.w3.org/2000/svg" version="1.1" width="500" height="500" viewBox="0 0 500 500"><rect x="0" y="0" width="500" height="500" fill="#ffffff"/><g transform="scale(23.81)"><g transform="translate(0,0)"><g><g transform="translate(3.5,3.5)"><path fill-rule="evenodd" d="M-3.5 -3.5L-3.5 3.5L3.5 3.5L3.5 -3.5ZM-2.5 -2.5L-2.5 2.5L2.5 2.5L2.5 -2.5Z" fill="#000000"/><path fill-rule="evenodd" d="M-1.5 -1.5L-1.5 1.5L1.5 1.5L1.5 -1.5Z" fill="#000000"/></g></g><g><g transform="translate(17.5,3.5)"><g transform="rotate(90)"><path fill-rule="evenodd" d="M-3.5 -3.5L-3.5 3.5L3.5 3.5L3.5 -3.5ZM-2.5 -2.5L-2.5 2.5L2.5 2.5L2.5 -2.5Z" fill="#000000"/><path fill-rule="evenodd" d="M-1.5 -1.5L-1.5 1.5L1.5 1.5L1.5 -1.5Z" fill="#000000"/></g></g></g><g><g transform="translate(3.5,17.5)"><g transform="rotate(-90)"><path fill-rule="evenodd" d="M-3.5 -3.5L-3.5 3.5L3.5 3.5L3.5 -3.5ZM-2.5 -2.5L-2.5 2.5L2.5 2.5L2.5 -2.5Z" fill="#000000"/><path fill-rule="evenodd" d="M-1.5 -1.5L-1.5 1.5L1.5 1.5L1.5 -1.5Z" fill="#000000"/></g></g></g><path fill-rule="evenodd" d="M10 0L10 3L12 3L12 5L13 5L13 3L12 3L12 2L13 2L13 0L12 0L12 2L11 2L11 0ZM8 1L8 3L9 3L9 1ZM8 4L8 8L6 8L6 9L5 9L5 10L4 10L4 8L3 8L3 9L2 9L2 8L0 8L0 9L1 9L1 10L0 10L0 11L1 11L1 10L2 10L2 13L3 13L3 12L4 12L4 11L8 11L8 10L9 10L9 9L8 9L8 8L9 8L9 6L10 6L10 7L11 7L11 8L10 8L10 9L11 9L11 10L10 10L10 11L9 11L9 12L6 12L6 13L8 13L8 15L9 15L9 17L8 17L8 18L10 18L10 19L11 19L11 20L9 20L9 19L8 19L8 21L11 21L11 20L12 20L12 21L14 21L14 18L16 18L16 19L18 19L18 14L17 14L17 13L19 13L19 12L20 12L20 13L21 13L21 11L19 11L19 12L18 12L18 10L17 10L17 8L14 8L14 9L16 9L16 10L17 10L17 11L16 11L16 12L15 12L15 11L14 11L14 12L13 12L13 10L12 10L12 9L13 9L13 8L12 8L12 7L13 7L13 6L12 6L12 7L11 7L11 4ZM18 8L18 9L19 9L19 10L20 10L20 8ZM6 9L6 10L8 10L8 9ZM3 10L3 11L4 11L4 10ZM11 10L11 11L12 11L12 10ZM9 12L9 13L10 13L10 14L11 14L11 16L10 16L10 18L11 18L11 19L12 19L12 18L11 18L11 16L12 16L12 14L13 14L13 13L11 13L11 12ZM14 13L14 14L15 14L15 15L14 15L14 17L13 17L13 18L14 18L14 17L16 17L16 18L17 18L17 16L15 16L15 15L16 15L16 14L15 14L15 13ZM19 14L19 17L20 17L20 19L19 19L19 20L18 20L18 21L20 21L20 20L21 20L21 17L20 17L20 16L21 16L21 15L20 15L20 14ZM15 20L15 21L17 21L17 20Z" fill="#000000"/></g></g></svg>
